HIERARCHY
ROOT Hips
{
	OFFSET 52.349499 -32.634415 97.211891
	CHANNELS 6 Xposition Yposition Zposition Xrotation Yrotation Zrotation
	JOINT spine
	{
		OFFSET 0.000000 -0.458069 7.965683
		CHANNELS 3 Xrotation Yrotation Zrotation
		JOINT spine1
		{
			OFFSET 0.000000 -0.000004 10.243103
			CHANNELS 3 Xrotation Yrotation Zrotation
			JOINT spine2
			{
				OFFSET 0.000000 0.000000 9.814751
				CHANNELS 3 Xrotation Yrotation Zrotation
				JOINT Neck
				{
					OFFSET 0.000000 -1.201385 25.198608
					CHANNELS 3 Xrotation Yrotation Zrotation
					JOINT Head
					{
						OFFSET 0.000000 -0.000004 7.613144
						CHANNELS 3 Xrotation Yrotation Zrotation
						End Site
						{
							OFFSET 0.000000 6.077328 18.428101
						}
					}
				}
				JOINT RightShoulder
				{
					OFFSET -4.132702 0.575447 10.599213
					CHANNELS 3 Xrotation Yrotation Zrotation
					JOINT RightArm
					{
						OFFSET 0.000000 0.000000 13.901794
						CHANNELS 3 Xrotation Yrotation Zrotation
						JOINT RightArmRoll
						{
							OFFSET 0.000000 -0.000004 7.017883
							CHANNELS 3 Xrotation Yrotation Zrotation
							JOINT RightForeArm
							{
								OFFSET 0.000000 -0.000004 20.440598
								CHANNELS 3 Xrotation Yrotation Zrotation
								JOINT RightForeArmRoll
								{
									OFFSET 0.000000 0.000000 7.875153
									CHANNELS 3 Xrotation Yrotation Zrotation
									JOINT RightHand
									{
										OFFSET 0.000000 -0.000004 15.803696
										CHANNELS 3 Xrotation Yrotation Zrotation
										End Site
										{
											OFFSET 0.000000 0.000000 0.100006
										}
									}
								}
							}
						}
					}
				}
				JOINT LeftShoulder
				{
					OFFSET 4.132702 0.575447 10.599213
					CHANNELS 3 Xrotation Yrotation Zrotation
					JOINT LeftArm
					{
						OFFSET 0.000000 0.000000 13.901794
						CHANNELS 3 Xrotation Yrotation Zrotation
						JOINT LeftArmRoll
						{
							OFFSET 0.000000 -0.000004 7.017883
							CHANNELS 3 Xrotation Yrotation Zrotation
							JOINT LeftForeArm
							{
								OFFSET 0.000000 -0.000004 20.440598
								CHANNELS 3 Xrotation Yrotation Zrotation
								JOINT LeftForeArmRoll
								{
									OFFSET 0.000000 0.000000 7.875153
									CHANNELS 3 Xrotation Yrotation Zrotation
									JOINT LeftHand
									{
										OFFSET 0.000000 -0.000004 15.803696
										CHANNELS 3 Xrotation Yrotation Zrotation
										End Site
										{
											OFFSET 0.000000 0.000000 0.100006
										}
									}
								}
							}
						}
					}
				}
			}
		}
	}
	JOINT RightUpLeg
	{
		OFFSET -7.060482 1.086100 -1.294701
		CHANNELS 3 Xrotation Yrotation Zrotation
		JOINT RightUpLegRoll
		{
			OFFSET 0.000000 -0.000004 18.530800
			CHANNELS 3 Xrotation Yrotation Zrotation
			JOINT RightLeg
			{
				OFFSET 0.000000 0.000004 -22.947601
				CHANNELS 3 Xrotation Yrotation Zrotation
				JOINT RightLegRoll
				{
					OFFSET 0.000000 -0.000004 23.022598
					CHANNELS 3 Xrotation Yrotation Zrotation
					JOINT RightFoot
					{
						OFFSET 0.000000 -0.000002 19.162514
						CHANNELS 3 Xrotation Yrotation Zrotation
						JOINT RightToeBase
						{
							OFFSET 0.000000 -0.000004 16.018799
							CHANNELS 3 Xrotation Yrotation Zrotation
							End Site
							{
								OFFSET 0.006790 0.894207 7.757812
							}
						}
					}
				}
			}
		}
	}
	JOINT LeftUpLeg
	{
		OFFSET 7.060482 1.086100 -1.294701
		CHANNELS 3 Xrotation Yrotation Zrotation
		JOINT LeftUpLegRoll
		{
			OFFSET 0.000000 -0.000004 18.530899
			CHANNELS 3 Xrotation Yrotation Zrotation
			JOINT LeftLeg
			{
				OFFSET 0.000000 -0.000004 22.947510
				CHANNELS 3 Xrotation Yrotation Zrotation
				JOINT LeftLegRoll
				{
					OFFSET 0.000000 -0.000004 23.235504
					CHANNELS 3 Xrotation Yrotation Zrotation
					JOINT LeftFoot
					{
						OFFSET 0.000000 -0.000002 18.949600
						CHANNELS 3 Xrotation Yrotation Zrotation
						JOINT LeftToeBase
						{
							OFFSET 0.000000 -0.000004 16.018799
							CHANNELS 3 Xrotation Yrotation Zrotation
							End Site
							{
								OFFSET -0.030430 0.894207 7.757812
							}
						}
					}
				}
			}
		}
	}
}
MOTION
Frames: 7
Frame Time: 0.041667
52.680305 0.616138 54.511784 -9.044248 -0.548638 1.888661 4.203998 -0.207931 -0.524452 12.402801 -0.458591 -1.029610 14.047785 -0.470977 -1.024206 -23.003215 12.895485 2.824090 20.403363 -12.271229 1.576551 -8.139599 -54.380494 -9.273542 -54.351524 -138.544486 -71.091833 -0.000003 0.000012 -0.000000 56.598943 -9.050334 1.826531 0.000017 -0.000005 -2.999989 -4.999779 -7.998887 0.000031 -25.339052 58.792342 29.972424 117.246481 49.895071 -83.442918 -0.000000 0.000003 0.000001 72.021394 9.775388 -1.829834 -0.000011 -0.000005 2.999981 -4.999850 7.998902 -0.000065 -80.974474 -168.318332 3.148668 179.999991 0.000004 -1.718007 75.170255 5.870627 4.221171 -0.000003 0.000000 3.051269 73.682004 6.813521 2.011597 27.532815 -7.240561 3.050150 -82.084018 169.057796 -3.301496 -0.000035 -0.000003 -1.514540 -98.040686 -4.084153 -1.299170 -0.000003 -0.000001 -2.406201 65.610346 -7.175795 -1.660521 29.835202 7.239199 -1.833613 
52.683105 0.613873 54.503983 -9.039825 -0.547442 1.888115 4.203367 -0.207371 -0.524184 12.402703 -0.457782 -1.029159 14.047687 -0.470147 -1.023765 -22.991323 12.882370 2.821411 20.398483 -12.257837 1.575832 -8.139752 -54.386406 -9.274129 -54.360168 -138.536440 -71.110165 -0.000002 0.000012 0.000002 56.605367 -9.053651 1.828285 0.000015 -0.000005 -2.999992 -4.999778 -7.998887 0.000031 -25.327513 58.784235 29.959112 117.255688 49.895061 -83.446094 -0.000001 0.000000 -0.000001 72.025233 9.772032 -1.825208 -0.000012 -0.000005 2.999980 -4.999850 7.998899 -0.000064 -80.977712 -168.319903 3.151115 179.999991 0.000004 -1.718007 75.170521 5.870204 4.220602 -0.000004 0.000001 3.051021 73.680932 6.813532 2.011164 27.533420 -7.240567 3.051146 -82.088342 169.059654 -3.297248 -0.000035 -0.000004 -1.514540 -98.041321 -4.085347 -1.300275 -0.000004 -0.000002 -2.406200 65.612245 -7.175809 -1.660800 29.828423 7.239193 -1.837569 
52.683304 0.610603 54.507698 -9.035543 -0.546204 1.887594 4.202688 -0.206802 -0.523916 12.402401 -0.456948 -1.028695 14.047480 -0.469292 -1.023301 -22.978145 12.868632 2.818325 20.392752 -12.244039 1.574872 -8.139646 -54.393038 -9.274455 -54.368907 -138.528462 -71.127869 -0.000003 0.000011 -0.000000 56.611022 -9.057204 1.830197 0.000015 -0.000008 -2.999993 -4.999777 -7.998888 0.000029 -25.314597 58.775690 29.944188 117.266452 49.895089 -83.451231 -0.000002 0.000004 -0.000002 72.028976 9.768530 -1.820492 -0.000010 -0.000005 2.999980 -4.999848 7.998895 -0.000068 -80.980970 -168.321106 3.153186 179.999991 0.000005 -1.719003 75.170767 5.869725 4.219725 -0.000006 0.000000 3.050720 73.679942 6.813503 2.010821 27.534128 -7.240566 3.052226 -82.092474 169.061648 -3.293410 -0.000035 -0.000005 -1.514540 -98.042134 -4.086634 -1.302406 -0.000004 -0.000002 -2.406200 65.614219 -7.175802 -1.661068 29.821453 7.239184 -1.841671 
52.677803 0.620632 54.522808 -9.031359 -0.544937 1.887096 4.201958 -0.206227 -0.523648 12.402198 -0.456098 -1.028213 14.047179 -0.468418 -1.022832 -22.963999 12.854420 2.814921 20.386494 -12.230087 1.573815 -8.139362 -54.400076 -9.274593 -54.378384 -138.519897 -71.146276 -0.000003 0.000011 -0.000001 56.616261 -9.060793 1.832070 0.000016 -0.000003 -2.999989 -4.999778 -7.998887 0.000030 -25.300882 58.766900 29.928328 117.277408 49.895283 -83.456715 -0.000001 0.000003 -0.000002 72.032466 9.764964 -1.815465 -0.000010 -0.000004 2.999981 -4.999848 7.998902 -0.000065 -80.984037 -168.322048 3.155788 179.999991 0.000004 -1.719003 75.170876 5.869183 4.218949 -0.000006 0.000000 3.050370 73.678856 6.813513 2.010485 27.534938 -7.240566 3.053377 -82.096797 169.063492 -3.288466 -0.000035 -0.000005 -1.514540 -98.043213 -4.088052 -1.303540 -0.000003 -0.000001 -2.406201 65.616316 -7.175803 -1.661430 29.814479 7.239177 -1.845909 
52.679802 0.609856 54.515789 -9.027229 -0.543652 1.886610 4.201198 -0.205648 -0.523380 12.401796 -0.455237 -1.027726 14.046880 -0.467536 -1.022355 -22.949422 12.840058 2.811424 20.379816 -12.215982 1.572646 -8.138977 -54.407532 -9.274646 -54.387765 -138.511264 -71.164315 -0.000002 0.000012 0.000003 56.621319 -9.064484 1.833991 0.000014 -0.000003 -2.999990 -4.999775 -7.998888 0.000030 -25.286585 58.757898 29.911796 117.288596 49.895727 -83.462384 -0.000000 0.000003 0.000000 72.035997 9.761260 -1.810366 -0.000012 -0.000004 2.999981 -4.999853 7.998896 -0.000066 -80.987035 -168.322922 3.158617 179.999991 0.000005 -1.719004 75.170986 5.868612 4.218069 -0.000004 0.000000 3.049989 73.677865 6.813484 2.010144 27.535638 -7.240561 3.054538 -82.100923 169.065487 -3.284328 -0.000035 -0.000004 -1.514540 -98.044538 -4.089423 -1.305678 -0.000003 -0.000002 -2.406200 65.618495 -7.175785 -1.661686 29.807410 7.239180 -1.850213 
52.681004 0.601006 54.506191 -9.023119 -0.542363 1.886125 4.200437 -0.205067 -0.523112 12.401496 -0.454374 -1.027238 14.046578 -0.466650 -1.021880 -22.934722 12.825517 2.807852 20.373039 -12.201882 1.571477 -8.138549 -54.414987 -9.274647 -54.397956 -138.502125 -71.183501 -0.000003 0.000011 -0.000000 56.626267 -9.068141 1.835916 0.000015 -0.000005 -2.999990 -4.999778 -7.998886 0.000029 -25.272308 58.748902 29.895253 117.300863 49.895696 -83.469454 -0.000002 0.000003 0.000000 72.039542 9.757581 -1.805360 -0.000010 -0.000006 2.999979 -4.999848 7.998897 -0.000065 -80.989979 -168.323715 3.161543 179.999991 0.000006 -1.719003 75.171074 5.868018 4.217187 -0.000005 0.000000 3.049611 73.676793 6.813527 2.009714 27.536446 -7.240563 3.055724 -82.105048 169.067481 -3.280089 -0.000035 -0.000005 -1.514540 -98.045706 -4.090889 -1.306836 -0.000003 -0.000002 -2.406200 65.620598 -7.175791 -1.662047 29.800430 7.239169 -1.854534 
52.679302 0.599014 54.512589 -9.018975 -0.541083 1.885638 4.199687 -0.204489 -0.522844 12.401194 -0.453516 -1.026759 14.046277 -0.465770 -1.021403 -22.920366 12.811132 2.804396 20.366468 -12.187861 1.570363 -8.138196 -54.422329 -9.274722 -54.407450 -138.493574 -71.201717 -0.000003 0.000011 -0.000001 56.631322 -9.071833 1.837840 0.000015 -0.000003 -2.999989 -4.999775 -7.998886 0.000032 -25.258174 58.740091 29.878939 117.311982 49.896058 -83.475061 -0.000001 0.000003 -0.000002 72.043005 9.753954 -1.800236 -0.000010 -0.000002 2.999980 -4.999848 7.998894 -0.000066 -80.992984 -168.324575 3.164372 179.999991 0.000005 -1.719004 75.171177 5.867449 4.216308 -0.000005 0.000000 3.049250 73.675803 6.813494 2.009370 27.537154 -7.240572 3.056885 -82.109119 169.069394 -3.275966 -0.000035 -0.000004 -1.514540 -98.046867 -4.092354 -1.308975 -0.000004 -0.000001 -2.406199 65.622784 -7.175766 -1.662399 29.793360 7.239169 -1.858809 
